<svg width="612" height="612" viewBox="0 0 612 612" fill="none" xmlns="http://www.w3.org/2000/svg">
<g clip-path="url(#clip0_7_31)">
<path d="M452.845 204.079L504.711 255.958C535.778 287.025 535.778 332.947 535.778 332.947L544.031 319.115C557.62 296.333 568.029 268.989 566.295 246.502C563.461 209.696 540.25 181.335 526.374 167.465L507.91 149.008L544.62 112.292L411.728 107.545L416.481 240.431L452.845 204.079Z" fill="#21282D"/>
<path d="M159.154 409.885L107.282 358.026C76.215 326.946 76.215 281.03 76.215 281.03L67.962 294.855C54.38 317.631 43.964 344.981 45.698 367.462C48.532 404.281 71.736 432.641 85.626 446.505L104.083 464.969L67.367 501.679L200.266 506.426L195.513 373.547L159.154 409.885Z" fill="#21282D"/>
<path d="M180.555 115.222C180.555 119.854 182.321 123.379 185.859 125.804C189.384 128.229 194.739 130.11 201.898 131.428V99.676C193.856 100.565 188.277 102.357 185.194 105.056C182.103 107.756 180.555 111.14 180.555 115.222Z" fill="#21282D"/>
<path d="M243.655 173.345C240.283 170.978 235.133 169.187 228.192 167.977V199.057C241.857 197.298 248.69 192.224 248.69 183.843C248.69 179.224 247.014 175.718 243.655 173.345Z" fill="#21282D"/>
<path d="M364.167 149.449C364.167 66.913 297.254 0 214.718 0C132.176 0 65.269 66.913 65.269 149.449C65.269 231.992 132.176 298.898 214.718 298.898C297.254 298.905 364.167 231.998 364.167 149.449ZM270.269 216.42C260.404 224.468 246.387 229.484 228.192 231.461V248.504H201.898V232.299C191.086 231.966 180.92 231.007 171.381 229.414C161.848 227.808 153.941 225.575 147.658 222.709V190.298C151.951 191.846 156.141 193.196 160.229 194.354C164.292 195.512 168.501 196.504 172.788 197.335C177.087 198.16 181.617 198.819 186.345 199.318C191.086 199.811 196.274 200.118 201.898 200.226V164.01C194.95 163.018 188.066 161.668 181.221 159.954C174.388 158.252 168.253 155.693 162.789 152.264C157.332 148.854 152.885 144.331 149.469 138.701C146.065 133.084 144.344 125.81 144.344 116.891C144.344 109.604 145.668 103.136 148.311 97.455C150.953 91.774 154.76 86.873 159.724 82.734C164.688 78.595 170.722 75.268 177.836 72.728C184.944 70.201 192.96 68.435 201.891 67.444V50.394H228.185V66.926C236.227 67.374 244.422 68.289 252.739 69.664C261.056 71.039 268.688 72.952 275.636 75.377V108.114C258.676 102.606 242.835 99.509 228.185 98.85V135.566C235.126 136.666 241.991 138.119 248.773 139.942C255.555 141.765 261.613 144.414 266.968 147.888C272.304 151.356 276.667 155.904 280.026 161.528C283.391 167.145 285.074 174.374 285.074 183.197C285.08 197.297 280.134 208.365 270.269 216.42Z" fill="#21282D"/>
<path d="M400.167 313.095C317.624 313.095 250.718 380.002 250.718 462.544C250.718 545.08 317.625 611.993 400.167 611.993C482.703 611.993 549.616 545.08 549.616 462.544C549.616 380.002 482.703 313.095 400.167 313.095ZM460.401 547.377C457.976 548.369 455.136 549.277 451.886 550.102C448.623 550.934 445.239 551.612 441.714 552.168C438.182 552.718 434.568 553.134 430.883 553.409C427.192 553.678 423.634 553.818 420.212 553.818C374.686 553.818 346.908 535.738 336.876 499.579H315.546V472.96H332.743C332.628 471.418 332.551 469.896 332.493 468.405C332.442 466.921 332.41 465.411 332.41 463.856C332.41 460.331 332.576 456.908 332.909 453.607H315.546V426.98H337.375C342.877 408.459 352.64 394.211 366.644 384.231C380.629 374.251 398.613 369.26 420.551 369.26C423.865 369.26 427.352 369.433 431.056 369.759C434.741 370.092 438.298 370.533 441.721 371.083C445.131 371.64 448.336 372.318 451.311 373.149C454.286 373.981 456.775 374.838 458.751 375.714V408.783C453.678 407.024 447.997 405.533 441.72 404.317C435.437 403.108 429.206 402.5 423.032 402.5C401.203 402.5 386.489 410.657 378.875 426.971H434.771V453.6H372.765C372.426 456.568 372.266 459.716 372.266 463.03C372.266 464.783 372.324 466.613 372.426 468.487C372.541 470.362 372.65 471.846 372.765 472.953H422.379V499.574H378.549C382.183 507.072 387.653 512.44 394.927 515.702C402.201 518.946 411.791 520.577 423.697 520.577C426.454 520.577 429.448 520.417 432.705 520.084C435.961 519.751 439.237 519.316 442.545 518.753C445.853 518.209 449.051 517.55 452.141 516.77C455.212 516.002 457.982 515.177 460.407 514.288V547.377H460.401Z" fill="#21282D"/>
</g>
<defs>
<clipPath id="clip0_7_31">
<rect width="611.994" height="611.994" fill="white"/>
</clipPath>
</defs>
</svg>
